<svg xmlns="http://www.w3.org/2000/svg" viewBox="0 0 512 512">
  <defs>
    <linearGradient id="bg" x1="0%" y1="0%" x2="100%" y2="100%">
      <stop offset="0%" stop-color="#1e3a8a"/>
      <stop offset="100%" stop-color="#2563eb"/>
    </linearGradient>
    <radialGradient id="ballGrad" cx="38%" cy="32%" r="68%">
      <stop offset="0%" stop-color="#ffffff"/>
      <stop offset="85%" stop-color="#f3f4f6"/>
      <stop offset="100%" stop-color="#d1d5db"/>
    </radialGradient>
    <radialGradient id="shadowGrad" cx="50%" cy="50%" r="50%">
      <stop offset="0%" stop-color="#00000033"/>
      <stop offset="100%" stop-color="#00000000"/>
    </radialGradient>
    <clipPath id="ballClip">
      <circle cx="256" cy="248" r="148"/>
    </clipPath>
    <filter id="shadow" x="-10%" y="-10%" width="120%" height="120%">
      <feDropShadow dx="0" dy="4" stdDeviation="8" flood-color="#00000044"/>
    </filter>
  </defs>
  <rect width="512" height="512" rx="96" fill="url(#bg)"/>
  <polygon points="181.00,38.00 186.88,53.91 203.83,54.58 190.51,65.09 195.11,81.42 181.00,72.00 166.89,81.42 171.49,65.09 158.17,54.58 175.12,53.91" fill="#fbbf24"/>
  <polygon points="256.00,38.00 261.88,53.91 278.83,54.58 265.51,65.09 270.11,81.42 256.00,72.00 241.89,81.42 246.49,65.09 233.17,54.58 250.12,53.91" fill="#fbbf24"/>
  <polygon points="331.00,38.00 336.88,53.91 353.83,54.58 340.51,65.09 345.11,81.42 331.00,72.00 316.89,81.42 321.49,65.09 308.17,54.58 325.12,53.91" fill="#fbbf24"/>
  <ellipse cx="256" cy="386" rx="103" ry="18" fill="#00000033"/>
  <circle cx="256" cy="248" r="148" fill="url(#ballGrad)" stroke="#e5e7eb" stroke-width="1.5" filter="url(#shadow)"/>
  <g fill="#111111" clip-path="url(#ballClip)">
    <polygon points="256.00,208.00 294.04,235.64 279.51,280.36 232.49,280.36 217.96,235.64" fill="black"/>
    <polygon points="256.00,194.00 217.96,166.36 232.49,121.64 279.51,121.64 294.04,166.36" fill="black"/>
    <polygon points="307.36,231.31 321.89,186.59 368.91,186.59 383.44,231.31 345.40,258.95" fill="black"/>
    <polygon points="287.74,291.69 334.76,291.69 349.29,336.41 311.25,364.05 273.21,336.41" fill="black"/>
    <polygon points="224.26,291.69 238.79,336.41 200.75,364.05 162.71,336.41 177.24,291.69" fill="black"/>
    <polygon points="204.64,231.31 166.60,258.95 128.56,231.31 143.09,186.59 190.11,186.59" fill="black"/>
  </g>
  <g stroke="#cccccc" stroke-width="1.5" fill="none" clip-path="url(#ballClip)">
    <line x1="256.00" y1="208.00" x2="256.00" y2="194.00"/>
    <line x1="294.04" y1="235.64" x2="307.36" y2="231.31"/>
    <line x1="279.51" y1="280.36" x2="287.74" y2="291.69"/>
    <line x1="232.49" y1="280.36" x2="224.26" y2="291.69"/>
    <line x1="217.96" y1="235.64" x2="204.64" y2="231.31"/>
  </g>
  <text x="256" y="456" 
    font-family="Arial Black, Arial, Helvetica, sans-serif" 
    font-size="78" font-weight="900" 
    fill="#fbbf24" 
    text-anchor="middle"
    letter-spacing="4">2026</text>
</svg>